<?xml version="1.0" standalone="no"?>
<!DOCTYPE svg PUBLIC "-//W3C//DTD SVG 20010904//EN"
 "http://www.w3.org/TR/2001/REC-SVG-20010904/DTD/svg10.dtd">
<svg version="1.0" xmlns="http://www.w3.org/2000/svg"
 width="260.000000pt" height="260.000000pt" viewBox="0 0 260.000000 260.000000"
 preserveAspectRatio="xMidYMid meet">
<metadata>
Created by potrace 1.14, written by Peter Selinger 2001-2017
</metadata>
<g transform="translate(0.000000,260.000000) scale(0.100000,-0.100000)"
fill="#000000" stroke="none">
<path d="M1285 2480 c-3 -5 -1 -10 4 -10 6 0 11 5 11 10 0 6 -2 10 -4 10 -3 0
-8 -4 -11 -10z"/>
<path d="M1326 2475 c-11 -8 -15 -15 -9 -15 6 0 16 7 23 15 16 19 11 19 -14 0z"/>
<path d="M1357 2464 c-13 -14 -7 -32 11 -30 9 2 17 9 17 16 0 15 -18 24 -28
14z"/>
<path d="M1415 2459 c-9 -14 -2 -20 14 -10 8 6 9 11 3 15 -6 3 -14 1 -17 -5z"/>
<path d="M1328 2404 c-7 -16 -17 -32 -22 -36 -12 -8 -28 0 -21 12 3 4 -4 6
-15 3 -24 -6 -24 -7 -2 -29 16 -17 16 -17 -3 -12 -16 4 -20 0 -21 -19 -1 -12
2 -23 7 -23 5 0 8 -6 7 -12 -2 -7 5 -12 15 -10 10 2 17 -3 17 -13 0 -9 4 -14
9 -10 5 3 12 1 16 -5 3 -5 -1 -10 -9 -10 -18 0 -20 -8 -8 -28 6 -9 11 -6 19
11 8 17 8 28 1 35 -6 6 -7 16 -2 24 6 9 10 6 14 -12 4 -15 13 -24 21 -22 8 2
11 0 7 -3 -8 -9 9 -45 21 -45 5 0 5 19 0 43 -7 36 -5 44 13 58 28 22 18 80
-13 72 -22 -6 -25 3 -6 20 18 17 39 20 47 7 5 -8 9 -7 13 4 4 11 1 16 -11 17
-9 1 -27 3 -39 4 -13 1 -23 -3 -23 -9 0 -6 -4 -4 -9 3 -8 12 -12 9 -23 -15z
m37 -54 c4 -6 -1 -7 -11 -3 -12 4 -15 2 -12 -8 3 -8 17 -13 32 -13 l28 1 -20
-20 c-25 -24 -52 -16 -52 16 0 34 21 50 35 27z m-50 -19 c3 -5 1 -12 -5 -16
-5 -3 -10 1 -10 9 0 18 6 21 15 7z m-28 -21 c-1 -11 -7 -22 -13 -24 -7 -3 -11
2 -9 12 2 9 4 20 4 25 2 17 20 5 18 -13z"/>
<path d="M1226 2243 c-6 -14 -5 -15 5 -6 7 7 10 15 7 18 -3 3 -9 -2 -12 -12z"/>
<path d="M1217 2204 c-16 -9 -27 -18 -24 -20 7 -7 57 18 57 28 0 10 1 10 -33
-8z"/>
<path d="M1290 2175 c0 -6 -13 -11 -28 -11 -16 -1 -45 -9 -65 -19 -28 -13 -37
-24 -39 -44 0 -14 -2 -37 -3 -51 -1 -14 -3 -80 -5 -147 -1 -67 -6 -143 -11
-170 -9 -46 -109 -240 -133 -255 -6 -4 -8 -8 -4 -8 9 0 -83 -182 -97 -192 -5
-4 -6 -8 -2 -8 5 0 0 -12 -11 -27 -11 -16 -27 -52 -36 -80 -10 -29 -22 -53
-28 -53 -6 0 -7 -7 -4 -16 7 -19 -40 -144 -62 -161 -9 -7 -13 -15 -10 -18 3
-4 -1 -27 -9 -53 -24 -81 -29 -127 -38 -352 -3 -80 -7 -161 -9 -180 -5 -36 -6
-109 -5 -213 1 -31 7 -61 13 -65 9 -6 245 -11 561 -12 79 0 609 7 631 9 8 1
10 39 7 134 -2 72 -4 138 -4 145 1 6 1 31 2 55 0 23 -2 94 -7 157 -4 63 -7
139 -8 168 -1 28 -4 52 -7 52 -8 0 -29 75 -33 120 -2 19 -20 71 -40 114 -20
44 -34 87 -31 96 3 10 -1 20 -9 23 -13 5 -43 58 -52 92 -1 6 -10 28 -20 50
-10 22 -17 43 -16 48 1 4 -3 7 -8 7 -6 0 -10 9 -10 19 0 11 -6 26 -13 33 -7 7
-19 29 -27 48 -7 19 -23 51 -35 70 -12 19 -37 64 -55 100 -19 36 -39 72 -45
80 -25 33 -34 99 -34 253 1 89 0 167 -1 172 -1 6 -3 15 -5 20 -1 6 -3 15 -3
22 -2 13 -63 33 -110 36 -15 1 -30 7 -34 12 -5 7 -8 7 -8 0z"/>
</g>
</svg>
